<svg width="320" height="320" viewBox="0 0 320 320" fill="none" xmlns="http://www.w3.org/2000/svg">
<g clip-path="url(#clip0_9704_8005)">
<path d="M301.811 71.2182C298.4 58.5298 288.385 48.5587 275.64 45.1622C252.567 39 159.999 39 159.999 39C159.999 39 67.4329 39 44.3582 45.1622C31.6147 48.5587 21.6003 58.5298 18.189 71.2182C12 94.1929 12 151.126 12 151.126C12 151.126 12 208.06 18.189 231.035C21.6003 243.723 31.6147 253.693 44.3582 257.09C49.2821 258.406 57.3707 259.439 67.0488 260.252C81.9408 261.505 100.597 262.234 117.28 262.659C140.561 263.253 159.999 263.253 159.999 263.253C159.999 263.253 252.567 263.253 275.64 257.09C288.385 253.693 298.4 243.723 301.811 231.035C308 208.06 308 151.126 308 151.126C308 151.126 307.975 94.1929 301.811 71.2182Z" fill="#FF0033"/>
<path d="M67.5811 249.574V309L174.865 252.508C139.234 251.99 99.3877 251.101 67.5811 249.574Z" fill="#FF0033"/>
<path d="M271.903 150.234H196.516L173.5 83L160.716 150.234L150 218.5L123.484 150.234H48.0977" stroke="white" stroke-width="13" stroke-miterlimit="16" stroke-linecap="round" stroke-linejoin="round"/>
</g>
<defs>
<clipPath id="clip0_9704_8005">
<rect width="296" height="270" fill="white" transform="translate(12 39)"/>
</clipPath>
</defs>
</svg>
