<svg width="259" height="225" viewBox="0 0 259 225" fill="none" xmlns="http://www.w3.org/2000/svg">
<g clip-path="url(#clip0_9704_8005)">
<g clip-path="url(#clip1_9704_8005)">
<path d="M239.212 44.9393C236.573 35.1175 228.825 27.3991 218.965 24.77C201.114 20 129.5 20 129.5 20C129.5 20 57.8856 20 40.0339 24.77C30.1749 27.3991 22.4272 35.1175 19.7881 44.9393C15 62.7234 15 106.794 15 106.794C15 106.794 15 150.865 19.7881 168.649C22.4272 178.471 30.1749 186.188 40.0339 188.818C43.8432 189.836 50.101 190.636 57.5884 191.266C69.1096 192.236 83.5429 192.8 96.4494 193.129C114.461 193.588 129.5 193.588 129.5 193.588C129.5 193.588 201.114 193.588 218.965 188.818C228.825 186.188 236.573 178.471 239.212 168.649C244 150.865 244 106.794 244 106.794C244 106.794 243.98 62.7234 239.212 44.9393Z" fill="#FF0000"/>
<path d="M57.5889 191.266V229L96.4499 193.129C83.5434 192.8 69.1101 192.235 57.5889 191.266Z" fill="#FF0000"/>
<path d="M216.073 106.103H157.751L134.568 45.0801L130.054 106.103L125.491 167.287L101.249 106.103H42.9268" stroke="white" stroke-width="13" stroke-miterlimit="16" stroke-linecap="round" stroke-linejoin="round"/>
</g>
</g>
<defs>
<clipPath id="clip0_9704_8005">
<rect width="259" height="225" fill="white"/>
</clipPath>
<clipPath id="clip1_9704_8005">
<rect width="229" height="209" fill="white" transform="translate(15 20)"/>
</clipPath>
</defs>
</svg>
