<svg width="320" height="320" viewBox="0 0 320 320" fill="none" xmlns="http://www.w3.org/2000/svg">
<g clip-path="url(#clip0_9704_8005)">
<path d="M301.811 71.2182C298.4 58.5298 288.385 48.5587 275.64 45.1622C252.567 39 159.999 39 159.999 39C159.999 39 67.4329 39 44.3582 45.1622C31.6147 48.5587 21.6003 58.5298 18.189 71.2182C12 94.1929 12 151.126 12 151.126C12 151.126 12 208.06 18.189 231.035C21.6003 243.723 31.6147 253.693 44.3582 257.09C49.2821 258.406 57.3707 259.439 67.0488 260.252C81.9408 261.505 100.597 262.234 117.28 262.659C140.561 263.253 159.999 263.253 159.999 263.253C159.999 263.253 252.567 263.253 275.64 257.09C288.385 253.693 298.4 243.723 301.811 231.035C308 208.06 308 151.126 308 151.126C308 151.126 307.975 94.1929 301.811 71.2182Z" fill="#FF0033"/>
<path d="M67.5811 249.574V309L174.865 252.508C139.234 251.99 99.3877 251.101 67.5811 249.574Z" fill="#FF0033"/>
<path d="M271.903 155.859C271.903 152.109 271.903 148.359 271.903 144.609C264.692 143.984 257.482 143.39 250.272 142.828C232.353 141.43 214.435 140.225 196.516 139.213L206.943 146.664C200.537 123.82 193.811 101.084 186.766 78.4585C181.87 63.6937 162.777 65.1277 159.725 80.3807C154.836 102.673 150.254 125.023 145.98 147.432C145.962 147.527 145.913 147.812 145.898 147.908C145.824 148.374 145.751 148.841 145.678 149.308C142.179 171.596 138.982 193.933 136.088 216.316L163.127 213.401C153.671 190.886 143.881 168.5 133.757 146.243C132.497 142.365 127.555 139.443 123.484 139.213C105.565 140.225 87.6467 141.43 69.7283 142.828C62.5181 143.39 55.3079 143.984 48.0977 144.609C48.0977 148.359 48.0977 152.109 48.0977 155.859C55.3079 156.484 62.5181 157.078 69.7283 157.64C87.6467 159.038 105.565 160.243 123.484 161.255L113.21 154.224C120.764 177.479 128.652 200.604 136.873 223.599C142.654 238.068 161.643 236.099 163.912 220.684C168.015 198.49 171.816 176.249 175.315 153.96C175.388 153.493 175.461 153.027 175.534 152.56L175.451 153.036C179.7 130.622 183.641 108.15 187.275 85.6193L160.234 87.5415C168.533 109.738 177.152 131.825 186.09 153.803C187.708 157.783 192.227 161.497 196.516 161.255C214.435 160.243 232.353 159.038 250.272 157.64C257.482 157.078 264.692 156.484 271.903 155.859Z" fill="white"/>
</g>
<defs>
<clipPath id="clip0_9704_8005">
<rect width="296" height="270" fill="white" transform="translate(12 39)"/>
</clipPath>
</defs>
</svg>
