<svg width="320" height="320" viewBox="0 0 320 320" fill="none" xmlns="http://www.w3.org/2000/svg">
<g clip-path="url(#clip0_9704_8014)">
<path d="M298.937 69.6408C295.594 57.1798 285.782 47.3874 273.296 44.0518C250.69 38 159.999 38 159.999 38C159.999 38 69.3092 38 46.7023 44.0518C34.2171 47.3874 24.4057 57.1798 21.0635 69.6408C15 92.2037 15 148.117 15 148.117C15 148.117 15 204.03 21.0635 226.593C24.4057 239.054 34.2171 248.846 46.7023 252.181C51.5264 253.474 59.451 254.488 68.9329 255.287C83.5231 256.518 101.801 257.234 118.146 257.651C140.955 258.234 159.999 258.234 159.999 258.234C159.999 258.234 250.69 258.234 273.296 252.181C285.782 248.846 295.594 239.054 298.937 226.593C305 204.03 305 148.117 305 148.117C305 148.117 304.975 92.2037 298.937 69.6408Z" fill="#FF0033"/>
<path d="M68.9326 255.287V312L159.999 258.234C159.999 258.234 140.955 258.234 118.145 257.651C101.801 257.233 83.5228 256.517 68.9326 255.287Z" fill="#FF0033"/>
<path d="M269.635 147.42H201.081L166.419 71.7666L160.702 147.42L154.923 223.275L118.919 147.42H50.3662" stroke="white" stroke-width="15" stroke-miterlimit="16" stroke-linecap="round" stroke-linejoin="round"/>
</g>
<defs>
<clipPath id="clip0_9704_8014">
<rect width="290" height="274" fill="white" transform="translate(15 38)"/>
</clipPath>
</defs>
</svg>
